<svg xmlns="http://www.w3.org/2000/svg" width="1600" height="900" viewBox="0 0 1600 900" role="img" aria-labelledby="title desc">
  <title id="title">The right control depends on the settlement path</title>
  <desc id="desc">A blunt mandatory delay treats every path alike. A settlement airlock keeps bounded internal and atomic linked paths fast while applying gates to unilateral irreversible externalization.</desc>
  <defs><style>.ink{fill:#162b45}.muted{fill:#667789}.h{font:700 56px Georgia,serif}.t{font:700 28px Georgia,serif}.b{font:25px Georgia,serif}.k{font:700 22px ui-monospace,Consolas,monospace;letter-spacing:1.5px}.x{font:21px ui-monospace,Consolas,monospace}.navy{fill:#fffdfa;stroke:#173a63;stroke-width:3}.teal{fill:#edf7f4;stroke:#19766f;stroke-width:3}.gold{fill:#fff3cf;stroke:#c38508;stroke-width:3}.red{fill:#fbe9e7;stroke:#b3423c;stroke-width:3}</style></defs>
  <rect width="1600" height="900" fill="#fbf8f1"/>
  <text x="70" y="72" class="k ink">FIG 08 / EXTERNALIZATION AIRLOCK</text>
  <text x="70" y="136" class="h ink">The right control depends on the path.</text>
  <text x="70" y="178" class="b muted">Delay is not a scalar safety setting. It belongs on unilateral irreversible release.</text>
  <rect x="70" y="250" width="350" height="430" rx="22" class="red"/>
  <text x="104" y="300" class="k ink">BLUNT SWITCH</text><text x="104" y="350" class="t ink">Delay every path</text>
  <text x="104" y="406" class="b ink">Mark and margin wait.</text><text x="104" y="446" class="b ink">Loss recognition waits.</text><text x="104" y="486" class="b ink">Atomic exchange waits.</text><text x="104" y="526" class="b ink">Safe exit waits.</text>
  <rect x="104" y="562" width="282" height="88" rx="14" class="navy"/><text x="130" y="598" class="t ink"><tspan x="130">Outcome:</tspan><tspan x="130" dy="32">slower control</tspan></text>
  <rect x="470" y="250" width="1060" height="430" rx="22" class="teal"/>
  <text x="505" y="300" class="k ink">SETTLEMENT AIRLOCK</text>
  <rect x="505" y="330" width="280" height="234" rx="16" class="navy"/><text x="535" y="376" class="t ink">1 / Fast internal</text><text x="535" y="420" class="b ink">mark · margin lock</text><text x="535" y="458" class="b ink">loss recognition</text><text x="535" y="500" class="x muted"><tspan x="535">inside recovery</tspan><tspan x="535" dy="24">domain</tspan></text>
  <rect x="835" y="330" width="280" height="234" rx="16" class="navy"/><text x="865" y="376" class="t ink"><tspan x="865">2 / Linked</tspan><tspan x="865" dy="31">exchange</tspan></text><text x="865" y="450" class="b ink">fast only if every leg</text><text x="865" y="488" class="b ink">settles or none does</text><text x="865" y="522" class="x muted"><tspan x="865">atomic bounded</tspan><tspan x="865" dy="24">path</tspan></text>
  <rect x="1165" y="330" width="330" height="234" rx="16" class="gold"/><text x="1195" y="376" class="t ink">3 / Airlock</text><text x="1195" y="420" class="b ink">intent · budget · clock</text><text x="1195" y="458" class="b ink">challenge · recovery</text><text x="1195" y="500" class="x muted"><tspan x="1195">unilateral release</tspan><tspan x="1195" dy="24">gate</tspan></text>
  <rect x="505" y="586" width="990" height="78" rx="12" class="navy"/><text x="534" y="618" class="t ink"><tspan x="534">Fast state. Fast linked exchange when all-or-none.</tspan><tspan x="534" dy="31">Bounded exit otherwise.</tspan></text>
  <rect x="70" y="768" width="1460" height="48" rx="12" class="red"/>
  <text x="98" y="800" class="k ink">NO SCALAR TRUST SCORE / INPUTS ARE NON-SUBSTITUTABLE; DELAY COVERS ONLY THE PATHS IT GATES.</text>
</svg>
